<svg viewBox="0 0 951.5314285714286 752.486" xmlns:xlink="http://www.w3.org/1999/xlink" xmlns="http://www.w3.org/2000/svg" style="max-height: 500px" width="951.5314285714286" height="752.486"><clipPath id="cl_3"><rect height="911" width="957"/></clipPath><g clip-path="url(#cl_3)"><path d="M647.49 670.205C648.591 669.323 648.135 669.877 648.792 668.49C647.769 667.627 647.504 667.422 646.322 666.812L645.301 666.292C610.956 648.396 570.623 580.147 558.782 542.595C543.037 492.437 548.042 438.061 572.68 391.619C596.444 346.219 637.27 312.119 686.176 296.821C704.826 291.096 726.661 286.939 746.097 286.609C828.774 285.205 907.572 333.685 934.799 413.662C940.042 429.063 943.603 444.222 948.215 459.547C960.028 443.201 970.465 428.646 979.505 410.443C983.225 402.952 986.093 393.697 989.379 387.185L989.887 386.196C999.351 348.645 994.384 323.622 952.414 313.834C932.266 309.135 915.8 310.805 895.988 309.563C992.865 277.969 1050.3 330.102 999.253 423.425C985.733 448.144 970.757 470.065 952.715 491.825C950.37 494.728 941.725 505.831 939.554 507.723C928.604 524.394 912.321 541 901.628 558.491C899.19 562.48 889.939 572.555 888.983 575.995L889.283 576.786C899.513 568.017 909.656 559.147 919.71 550.178C924.045 546.359 933.884 537.437 938.445 534.616C935.83 557.327 916.233 595.513 901.136 612.779C895.583 609.93 890.947 607.7 884.853 606.066C890.527 610.042 900.491 611.832 902.406 619.162C901.975 624.527 898.348 626.265 893.713 626.963C888.737 627.714 885.158 633.823 879.742 637.013C872.044 644.274 858.228 652.339 849.099 657.672C848.65 650.38 848.799 641.818 848.749 634.428C848.306 629.067 848.077 621.622 847.402 616.618C841.556 618.762 837.441 620.697 832.277 624.332C832.353 630.651 832.665 662.657 831.267 666.849L829.97 668.005C822.337 670.364 797.506 679.557 789.478 677.781C788.889 677.651 788.514 676.315 788.179 675.548C785.51 670.287 785.839 659.808 785.701 653.742C782.53 655.378 779.231 656.977 776.096 658.663C769.938 661.976 769.767 664.125 769.87 670.346L769.862 682.552C757.563 682.707 745.263 682.675 732.965 682.458C735.199 681.039 737.725 679.34 739.976 678.023C728.599 670.782 725.519 669.512 712.396 672.017C677.88 685.685 643.377 696.276 606.691 701.309C560.825 707.733 491.527 704.766 485.269 645.471C481.082 605.799 503.394 565.5 527.288 535.111C515.371 571.208 483.494 630.204 520.256 662.52C540.69 680.483 582.533 679.753 607.683 676.575C620.691 674.931 634.007 671.429 647.49 670.205Z" transform="translate(-272 -271)" fill="#1F202F"/><path d="M895.988 309.563C992.865 277.969 1050.3 330.102 999.253 423.425C985.733 448.144 970.757 470.065 952.715 491.825C950.37 494.728 941.725 505.831 939.554 507.723C928.604 524.394 912.321 541 901.628 558.491C899.19 562.48 889.939 572.555 888.983 575.995L889.283 576.786C899.513 568.017 909.656 559.147 919.71 550.178C924.045 546.359 933.884 537.437 938.445 534.616C935.83 557.327 916.233 595.513 901.136 612.779C895.583 609.93 890.947 607.7 884.853 606.066C890.527 610.042 900.491 611.832 902.406 619.162C901.975 624.527 898.348 626.265 893.713 626.963C888.737 627.714 885.158 633.823 879.742 637.013C872.044 644.274 858.228 652.339 849.099 657.672C848.65 650.38 848.799 641.818 848.749 634.428C848.306 629.067 848.077 621.622 847.402 616.618C841.556 618.762 837.441 620.697 832.277 624.332C832.353 630.651 832.665 662.657 831.267 666.849L829.97 668.005C822.337 670.364 797.506 679.557 789.478 677.781C788.889 677.651 788.514 676.315 788.179 675.548C785.51 670.287 785.839 659.808 785.701 653.742C782.53 655.378 779.231 656.977 776.096 658.663C769.938 661.976 769.767 664.125 769.87 670.346L769.862 682.552C757.563 682.707 745.263 682.675 732.965 682.458C735.199 681.039 737.725 679.34 739.976 678.023C728.599 670.782 725.519 669.512 712.396 672.017C677.88 685.685 643.377 696.276 606.691 701.309C560.825 707.733 491.527 704.766 485.269 645.471C481.082 605.799 503.394 565.5 527.288 535.111C515.371 571.208 483.494 630.204 520.256 662.52C540.69 680.483 582.533 679.753 607.683 676.575C620.691 674.931 634.007 671.429 647.49 670.205C655.276 669.481 676.594 661.374 684.28 658.428C758.762 629.876 827.695 582.321 886.508 528.927C922.903 495.885 960.511 453.911 981.826 409.221C984.318 403.995 989.616 391.741 989.887 386.196C999.351 348.645 994.384 323.622 952.414 313.834C932.266 309.135 915.8 310.805 895.988 309.563Z" transform="translate(-272 -271)" fill="#1BA2A2"/><path d="M712.396 672.017C718.237 668.285 737.596 659.883 745.381 655.892C767.49 644.396 789.086 631.941 810.109 618.563C844.677 596.272 876.94 570.595 906.42 541.911C916.866 531.844 929.221 516.489 939.554 507.723C928.604 524.394 912.321 541 901.628 558.491C899.19 562.48 889.939 572.555 888.983 575.995L889.283 576.786C899.513 568.017 909.656 559.147 919.71 550.178C924.045 546.359 933.884 537.437 938.445 534.616C935.83 557.327 916.233 595.513 901.136 612.779C895.583 609.93 890.947 607.7 884.853 606.066C890.527 610.042 900.491 611.832 902.406 619.162C901.975 624.527 898.348 626.265 893.713 626.963C888.737 627.714 885.158 633.823 879.742 637.013C872.044 644.274 858.228 652.339 849.099 657.672C848.65 650.38 848.799 641.818 848.749 634.428C848.306 629.067 848.077 621.622 847.402 616.618C841.556 618.762 837.441 620.697 832.277 624.332C832.353 630.651 832.665 662.657 831.267 666.849L829.97 668.005C822.337 670.364 797.506 679.557 789.478 677.781C788.889 677.651 788.514 676.315 788.179 675.548C785.51 670.287 785.839 659.808 785.701 653.742C782.53 655.378 779.231 656.977 776.096 658.663C769.938 661.976 769.767 664.125 769.87 670.346L769.862 682.552C757.563 682.707 745.263 682.675 732.965 682.458C735.199 681.039 737.725 679.34 739.976 678.023C728.599 670.782 725.519 669.512 712.396 672.017Z" transform="translate(-272 -271)" fill="#1F202F"/><path d="M889.283 576.786C899.513 568.017 909.656 559.147 919.71 550.178C924.045 546.359 933.884 537.437 938.445 534.616C935.83 557.327 916.233 595.513 901.136 612.779C895.583 609.93 890.947 607.7 884.853 606.066C882.823 604.85 867.528 599.621 864.568 598.574C870.132 593.279 885.672 580.98 889.283 576.786Z" transform="translate(-272 -271)" fill="#1BA2A2"/><path d="M788.087 652.455L829.404 626.742C831.108 636.48 831.082 657.936 829.97 668.005C822.337 670.364 797.506 679.557 789.478 677.781C788.889 677.651 788.514 676.315 788.179 675.548C788.049 667.851 788.019 660.153 788.087 652.455Z" transform="translate(-272 -271)" fill="#1BA2A2"/><path d="M849.424 618.307C862.554 621.474 875.304 624.421 888.147 628.727C885.941 630.804 881.446 634.8 879.742 637.013C872.044 644.274 858.228 652.339 849.099 657.672C848.65 650.38 848.799 641.818 848.749 634.428L849.424 618.307Z" transform="translate(-272 -271)" fill="#1BA2A2"/><path d="M739.976 678.023C748.06 674.72 759.141 667.541 767.462 665.38C769.368 666.787 769.006 667.495 769.87 670.346L769.862 682.552C757.563 682.707 745.263 682.675 732.965 682.458C735.199 681.039 737.725 679.34 739.976 678.023Z" transform="translate(-272 -271)" fill="#1BA2A2"/><path d="M738.585 288.94C769.017 284.61 817.715 296.648 844.282 311.782C901.026 344.107 924.47 383.717 941.881 442.897C921.443 474.604 889.891 507.347 861.305 531.942L849.977 529.305C849.807 499.19 849.918 469.074 850.311 438.961L788.776 439.413L788.846 338.534C777.918 345.877 767.134 353.432 756.501 361.196C739.924 372.324 722.806 385.199 706.561 397.027L706.725 462.959C686.07 462.543 665.409 462.486 644.752 462.79C644.789 484.767 644.97 506.743 645.296 528.717C614.77 533.975 593.115 541.271 564.124 552.837C558.447 536.095 554.001 516.74 552.561 499.236C548.435 447.205 565.265 395.682 599.31 356.12C635.763 313.196 683.625 293.59 738.585 288.94Z" transform="translate(-272 -271)" fill="#B2DCCF"/><path d="M766.565 378.621C769.916 384.882 768.797 503.058 768.838 520.756L730.268 520.668L729.543 520.395C725.485 515.883 727.184 418.717 727.25 405.977C740.067 396.097 753.113 387.554 766.565 378.621Z" transform="translate(-272 -271)" fill="#1BA2A2"/><path d="M640.605 549.509C642.337 549.296 642.239 549.214 643.762 550.029C646.908 556.659 645.4 590.191 645.265 599.498C629.672 601.286 611.436 606.228 596.389 610.225L588.324 599.373C582.239 589.733 576.563 579.841 571.312 569.722C593.714 560.795 616.917 554.027 640.605 549.509Z" transform="translate(-272 -271)" fill="#1BA2A2"/><path d="M788.825 459.297L829.88 459.239L829.854 526.246C815.576 523.807 803.235 522.54 788.784 521.346L788.825 459.297Z" transform="translate(-272 -271)" fill="#1BA2A2"/><path d="M726.87 541.313L768.736 541.324L768.659 593.206C757.708 593.869 738.732 592.574 727.283 591.937L726.87 541.313Z" transform="translate(-272 -271)" fill="#1BA2A2"/><path d="M702.927 542.367C704.132 542.182 703.667 542.289 705.075 542.835C707.936 548.486 706.766 583.961 706.686 592.506C694.337 593.377 681.914 594.064 669.653 595.702L667.021 595.217C663.471 590.763 665.025 554.232 665.103 546.547C678.098 544.018 689.749 543.338 702.927 542.367Z" transform="translate(-272 -271)" fill="#1BA2A2"/><path d="M665.103 482.708L706.231 482.709C706.716 489.902 708.528 517.615 703.695 521.503C693.849 523.422 676.01 524.512 665.466 525.4L665.103 482.708Z" transform="translate(-272 -271)" fill="#1BA2A2"/><path d="M692.931 614.077C696.076 613.67 702.65 613.645 706.067 613.533C706.457 618.949 706.576 624.563 706.762 630.007C696.909 633.803 687.087 637.678 677.296 641.633L665.745 645.774C665.041 635.802 665.169 626.229 665.199 616.242L692.931 614.077Z" transform="translate(-272 -271)" fill="#1BA2A2"/><path d="M788.976 543.133L797.714 543.672C805.664 544.188 821.108 544.13 826.095 549.804C828.227 557.875 817.805 563.185 812.059 567.078L788.755 583.622C788.442 570.126 788.516 556.624 788.976 543.133Z" transform="translate(-272 -271)" fill="#1BA2A2"/><path d="M642.545 619.877L643.844 620.332C646.525 626.066 644.736 648.977 644.364 656.011C638.995 652.064 633.917 647.858 628.753 643.652C621.874 637.949 617.004 633.39 610.601 627.197C621.198 623.783 631.628 621.832 642.545 619.877Z" transform="translate(-272 -271)" fill="#1BA2A2"/><path d="M726.316 612.969C729.716 612.873 736.898 612.128 738.673 615.131L737.557 616.726C734.673 618.22 732.451 619.505 729.269 618.653C726.76 616.232 727.497 616.744 726.316 612.969Z" transform="translate(-272 -271)" fill="#1BA2A2"/><path d="M850.198 795.937L896.925 795.978C919.842 795.998 947.574 793.163 964.873 810.897C976.657 822.977 979.402 841.875 978.887 858.011C978.228 878.636 972.455 890.207 957.785 904.063C966.3 929.781 974.777 957.825 982.841 983.866L937.664 983.776L926.274 983.781C923.286 972.027 911.509 921.612 904.568 915.964L902.824 916.386C899.849 920.678 901.019 974.441 901.026 983.908L850.124 983.853L850.198 795.937ZM901.213 884.171C909.014 884.268 912.063 884.791 918.964 880.983C922.8 872.889 925.116 860.714 921.927 852.281C920.377 848.069 917.095 844.725 912.913 843.096C909.834 841.872 904.631 842.105 901.186 842.122C901.205 855.878 901.487 870.491 901.213 884.171Z" transform="translate(-272 -271)" fill="#B2DCCF"/><path d="M651.733 795.96C669.025 796.108 686.318 796.146 703.61 796.075L703.737 982.164L703.399 983.082C699.373 984.454 658.56 983.808 651.786 983.796L651.805 912.854C641.026 913.467 627.668 913.117 616.865 912.768L616.792 984.22C599.432 984.246 582.071 984.103 564.714 983.789L564.626 796.034L616.951 796.055C617.75 819.608 617.146 846.027 616.968 869.684L651.808 869.643L651.733 795.96Z" transform="translate(-272 -271)" fill="#B2DCCF"/><path d="M1158.57 796.046L1211.88 796.012C1204.54 826.003 1195.89 856.721 1187.82 886.592C1191.63 900.451 1214.32 973.756 1213.62 982.246C1208.82 984.683 1164.22 983.821 1156.08 983.837C1153.45 968.052 1148.03 942.003 1144.04 926.922L1143.34 923.699L1142.48 923.39C1141.44 925.569 1141.38 925.725 1140.84 928.074C1136.07 945.352 1131.67 966.219 1127.54 983.854C1108.93 983.935 1090.33 983.896 1071.72 983.74C1073.11 976.915 1079.05 959.433 1081.26 952.064L1100.69 886.466L1073.63 796.036L1134.95 796.081C1138.14 813.319 1141.54 834.527 1146.41 851.068C1151.22 837.242 1155.87 810.865 1158.57 796.046Z" transform="translate(-272 -271)" fill="#B2DCCF"/><path d="M424.589 795.975L464.58 795.95C485.858 795.931 512.916 794.107 530.496 807.806C547.602 821.754 550.942 844.195 550.036 864.784C548.112 908.503 529.537 918.867 489.517 922.758L475.444 922.847C475.966 942.591 475.595 963.989 475.626 983.861L424.705 983.834C424.171 962.651 424.634 939.351 424.651 918.011L424.589 795.975ZM475.541 886.654C482.823 886.472 487.706 887.099 493.892 883.25C497.623 873.823 498.716 862.717 497.019 852.737C494.643 838.766 486.935 839.27 475.467 839.395C475.892 853.873 476.121 872.113 475.541 886.654Z" transform="translate(-272 -271)" fill="#B2DCCF"/><path d="M346.079 792.769C362.444 792.06 386.184 795.371 402.365 798.689C401.69 811.974 398.322 833.756 396.606 847.499C391.546 846.045 386.433 844.779 381.279 843.703C373.361 842.011 341.907 834.776 341.176 849.228C340.623 860.157 366.991 869.564 374.364 874.414C378.86 877.372 384.919 880.416 388.98 884.497C411.85 904.156 413.369 947.252 393.09 969.144C381.627 981.519 364.56 986.262 347.915 986.805C325.596 986.277 313.999 984.212 292.695 977.983C293.59 962.758 294.568 947.537 295.629 932.322C302.54 934.525 355.454 951.894 353.623 932.432C352.164 916.919 319.722 908.349 308.351 898.045C296.282 887.108 288.527 873.066 287.185 856.058C285.086 817.559 309.951 795.446 346.079 792.769Z" transform="translate(-272 -271)" fill="#B2DCCF"/><path d="M728.293 796.052C739.282 795.661 752.883 796.029 764.072 796.038L832.984 796.085C832.577 811.875 831.318 827.24 830.199 842.993L780.135 842.816L780.122 870.327L823.645 870.397L823.748 911.066C809.232 911.2 794.715 911.111 780.201 910.8L780.232 940.906C783.11 941.438 794.31 941.304 797.84 941.3L832.98 941.256C832.952 953.953 831.139 970.983 830.301 984.19C796.651 983.418 762.406 984.639 728.645 983.804C727.591 922.364 728.471 857.832 728.293 796.052Z" transform="translate(-272 -271)" fill="#B2DCCF"/><path d="M1001.97 795.922C1019.33 796.049 1036.68 796.088 1054.04 796.039L1054.08 983.876L1002.07 983.947L1001.97 795.922Z" transform="translate(-272 -271)" fill="#B2DCCF"/><path d="M461.435 1094.57C476.23 1091.99 490.303 1101.93 492.824 1116.73C495.345 1131.54 485.354 1145.57 470.54 1148.03C455.806 1150.49 441.864 1140.56 439.357 1125.84C436.849 1111.11 446.721 1097.13 461.435 1094.57ZM470.762 1142.28C482.376 1139.73 489.71 1128.23 487.128 1116.62C484.546 1105.01 473.03 1097.71 461.428 1100.32C449.864 1102.92 442.587 1114.39 445.16 1125.96C447.733 1137.53 459.186 1144.83 470.762 1142.28Z" transform="translate(-272 -271)" fill="#F2F2F1"/><path d="M987.004 1105.38C1000.26 1106.26 999.766 1111.56 1004.3 1111.98C1005.13 1109.29 1005.27 1107.24 1007.11 1105.57L1008.65 1106.44C1012.95 1114.79 1010.63 1149.17 1008.99 1159.23C1004.53 1163.74 1001.87 1166.34 994.408 1168.09C987.081 1169.81 974.246 1165.92 972 1157.39C971.61 1155.91 972.694 1154.85 973.713 1153.81L975.496 1153.95L976.849 1155.73C982.602 1162.72 991.268 1168.21 999.374 1160.44C1005.17 1154.89 1004.83 1148.09 1004.78 1140.7C974.758 1169.84 949.475 1113.48 987.004 1105.38ZM993.879 1142.46C1002.33 1140.04 1007.22 1131.22 1004.81 1122.77C1002.39 1114.31 993.577 1109.41 985.119 1111.82C976.65 1114.23 971.745 1123.06 974.165 1131.53C976.586 1139.99 985.414 1144.89 993.879 1142.46Z" transform="translate(-272 -271)" fill="#F2F2F1"/><path d="M708.35 1105.35C716.227 1105.31 719.662 1108.55 725.471 1113.23C725.771 1109.35 725.03 1107.15 728.772 1105.76L730.278 1106.66C732.998 1112.75 730.916 1149.99 730.088 1158.06C723.02 1168.59 711.05 1172.09 699.801 1165.59C697.464 1164.24 693.058 1161.22 692.78 1158.15C692.561 1155.74 692.76 1155.68 694.097 1154.01C696.374 1153.78 695.385 1153.51 697.195 1154.73C702.603 1163.57 712.251 1169.01 720.606 1159.95C726.128 1153.96 725.752 1148.01 725.564 1140.5C694.461 1169.95 671.19 1112.01 708.35 1105.35ZM714.801 1142.43C723.176 1139.97 728 1131.22 725.606 1122.82C723.212 1114.43 714.496 1109.53 706.083 1111.86C697.574 1114.21 692.613 1123.05 695.034 1131.54C697.455 1140.03 706.331 1144.92 714.801 1142.43Z" transform="translate(-272 -271)" fill="#F2F2F1"/><path d="M529.562 1090.98C532.057 1091.2 532.003 1091.02 533.949 1092.52C537.08 1097.9 535.808 1107.03 535.526 1113.51C539.016 1110.06 542.321 1107.5 547.161 1106.25C552.268 1104.89 557.712 1105.7 562.199 1108.49C566.992 1111.48 570.334 1116.33 571.431 1121.87C573.132 1130.09 570.434 1136.53 565.969 1143.11C548.616 1156.74 540.66 1142.05 536.041 1142.9C535.618 1145.33 535.783 1145.86 534.13 1147.66C531.584 1148.19 532.792 1148.35 530.411 1146.99C528.44 1142.93 529.499 1098.87 529.562 1090.98ZM554.901 1143.33C564.602 1138.63 569.506 1128.45 564.232 1118.51C562.372 1115.01 559.141 1112.45 555.315 1111.43C552.257 1110.6 549.901 1110.77 546.799 1111.05C527.402 1121.67 533.629 1144.87 554.901 1143.33Z" transform="translate(-272 -271)" fill="#F2F2F1"/><path d="M884.281 1106C898.776 1105.03 895.22 1107.59 904.571 1112.2C905.302 1109.59 905.48 1106.7 908.207 1106.01L909.936 1107.12C912.025 1112.6 911.389 1140.32 909.805 1146.88C908.067 1148.55 909.069 1148.21 906.955 1148.45C904.655 1145.47 906.544 1144.68 904.25 1141.87L902.604 1143.22C900.341 1145.12 898.786 1146.36 896.066 1147.61C891.853 1149.56 887.034 1149.76 882.676 1148.15C864.792 1141.44 861.461 1114.43 884.281 1106ZM893.778 1142.65C899.324 1141.21 903.669 1136.9 905.157 1131.37C906.645 1125.83 905.047 1119.93 900.972 1115.9C896.897 1111.87 890.973 1110.34 885.457 1111.89C877.047 1114.26 872.111 1122.96 874.393 1131.39C876.674 1139.82 885.322 1144.85 893.778 1142.65Z" transform="translate(-272 -271)" fill="#F2F2F1"/><path d="M1036.12 1105.99C1044.94 1105.27 1053.35 1106.78 1058.06 1115.25C1059.94 1118.63 1061.61 1122.61 1060.12 1126.41C1052.5 1134.76 1030.63 1124.78 1026.16 1132.89C1026.7 1143.48 1042.11 1145.87 1050.27 1140.47C1050.6 1140 1050.93 1139.53 1051.27 1139.06C1053.03 1136.67 1053.92 1135.45 1056.9 1135.01L1057.96 1135.96C1058.92 1147.2 1040.18 1151.61 1031.93 1147.08C1014.13 1137.32 1015.93 1112.17 1036.12 1105.99ZM1025.33 1124.64C1032.4 1124.58 1039.76 1124.42 1046.81 1124.54C1049.77 1124.59 1052.08 1125.02 1054.38 1123.29C1055.02 1121.93 1055.66 1120.75 1054.64 1119.24C1049.98 1112.3 1043.41 1110.6 1035.94 1110.99C1028.63 1115.09 1027.91 1116.54 1025.33 1124.64Z" transform="translate(-272 -271)" fill="#F2F2F1"/><path d="M782.549 1094.32C792.277 1094.02 803.678 1094.82 809.64 1104C810.871 1105.9 811.656 1107.83 811.162 1110.1C806.894 1112.82 797.268 1097.97 786.532 1098.55C774.017 1099.23 766.916 1112.09 767.159 1122.81C767.509 1138.22 778.849 1143.44 792.537 1143.2C803.27 1140.21 802.67 1133.36 810.796 1132.98L811.534 1133.79C810.328 1138.27 802.133 1145.78 797.817 1147.3C783.543 1152.34 768.914 1145.91 763.366 1131.74C760.466 1124.5 760.668 1116.39 763.923 1109.31C767.945 1100.75 774.098 1097.21 782.549 1094.32Z" transform="translate(-272 -271)" fill="#F2F2F1"/><path d="M822.828 1091.01C824.949 1091.22 824.957 1091.09 826.81 1092.06C829.715 1096.36 828.455 1106.66 828.328 1112.26C861.472 1084.29 865.235 1141.96 857.022 1147.92L855.733 1147.58C852.678 1143.46 853.865 1128.63 853.913 1122.63C853.752 1121.7 853.562 1120.77 853.343 1119.85C851.64 1112.95 845.071 1108.75 838.156 1110.91C821.404 1116.13 832.913 1137.26 826.749 1148.77L825.505 1148.38C820.885 1139.8 822.54 1102.6 822.828 1091.01Z" transform="translate(-272 -271)" fill="#F2F2F1"/><path d="M660.312 1105.31C683.548 1103.99 680.921 1129.12 679.859 1144.78C679.735 1146.6 678.905 1147.51 677.511 1148.33C667.247 1144.4 685.124 1113.65 661.553 1110.57L660.511 1110.45C641.479 1113.57 652.722 1138.31 647.316 1147.34C645.283 1148.23 646.295 1148.2 644.18 1147.39C642.174 1139.98 642.282 1114.69 644.151 1107.26C646.089 1105.8 645.107 1105.97 647.093 1105.9C648.237 1107.98 648.063 1108.07 650.081 1109.2C652.854 1109.16 657.076 1106.61 660.312 1105.31Z" transform="translate(-272 -271)" fill="#F2F2F1"/><path d="M940.904 1105.24C953.191 1106.37 958.616 1112.03 959.929 1124.73C960.452 1129.79 960.971 1143.3 957.764 1147.18L955.992 1146.79C948.623 1138.03 964.75 1110.21 936.556 1110.91C920.004 1121.33 933.907 1144.88 925.626 1147.83L924.173 1147.06C921.686 1141.09 922.366 1115.22 923.386 1107.85C923.608 1106.25 924.94 1105.94 926.177 1105.41C928.034 1106.64 928.256 1108.83 928.971 1111.24C933.454 1108.45 935.77 1106.66 940.904 1105.24Z" transform="translate(-272 -271)" fill="#F2F2F1"/><path d="M600.23 1095.13C601.637 1095.37 602.892 1095.64 604.291 1095.94C608.205 1100.19 603.823 1099.63 606.187 1105.39C609.489 1105.79 612.877 1105.89 615.514 1107.71L615.729 1109.01L614.763 1110.28C612.33 1111.72 608.804 1111.4 605.848 1111.45C605.67 1117.15 603.75 1139.81 608.964 1142.27C611.287 1143.37 614.925 1141.7 618.452 1145.84C615.091 1148.74 611.241 1148.92 607.049 1147.65C593.014 1143.4 604.13 1119.69 599.222 1111.59C597.77 1111.35 596.658 1111.13 595.226 1110.8C594.03 1108.41 594.136 1109.59 594.672 1107.15C601.698 1104.9 600.433 1101.52 600.23 1095.13Z" transform="translate(-272 -271)" fill="#F2F2F1"/><path d="M519.219 1105.05C521.457 1105.44 521.73 1105.81 522.472 1107.65C520.344 1112.34 515.673 1111.39 513.139 1113.22C504.22 1119.64 510.217 1135.94 507.112 1146.41C505.189 1148.28 505.909 1147.7 502.431 1147.86C502.155 1141.39 501.061 1109.68 504.152 1105.87L506.043 1105.7C508.569 1108.26 506.354 1108.84 508.697 1110.96C512.687 1108.32 514.745 1106.76 519.219 1105.05Z" transform="translate(-272 -271)" fill="#F2F2F1"/><path d="M581.327 1105.65C583.777 1105.97 584.25 1105.83 586.367 1107.14C588.046 1114.88 587.025 1139.55 586.857 1148.8C584.402 1148.5 584.522 1148.54 582.301 1147.47C579.564 1141.09 581.103 1113.47 581.327 1105.65Z" transform="translate(-272 -271)" fill="#F2F2F1"/><path d="M626.076 1105.49C628.307 1105.73 629.412 1105.59 631.081 1107.06C632.869 1114.08 631.824 1140.16 631.673 1148.88C628.297 1148.05 628.69 1148.67 626.52 1146.58C624.989 1139.3 625.931 1114.26 626.076 1105.49Z" transform="translate(-272 -271)" fill="#F2F2F1"/><path d="M626.837 1090.96C628.857 1089.9 631.358 1090.67 632.432 1092.68C633.506 1094.7 632.747 1097.2 630.735 1098.28C628.713 1099.37 626.193 1098.61 625.113 1096.58C624.034 1094.55 624.807 1092.04 626.837 1090.96Z" transform="translate(-272 -271)" fill="#F2F2F1"/><path d="M582.244 1090.91C584.252 1089.99 586.625 1090.82 587.624 1092.79C588.623 1094.76 587.893 1097.16 585.969 1098.24C584.65 1098.98 583.033 1098.94 581.755 1098.14C580.477 1097.33 579.744 1095.89 579.846 1094.38C579.948 1092.87 580.869 1091.54 582.244 1090.91Z" transform="translate(-272 -271)" fill="#F2F2F1"/><path d="M1140.84 928.074C1141.38 925.725 1141.44 925.569 1142.48 923.39L1143.34 923.699L1144.04 926.922L1143.04 930.968L1142.25 930.784L1140.84 928.074Z" transform="translate(-272 -271)" fill-opacity="0.015686275" fill="#1F202F"/></g></svg>